<?xml version="1.0" standalone="no"?>
<!DOCTYPE svg PUBLIC "-//W3C//DTD SVG 20010904//EN"
 "http://www.w3.org/TR/2001/REC-SVG-20010904/DTD/svg10.dtd">
<svg version="1.0" xmlns="http://www.w3.org/2000/svg"
 width="640.000000pt" height="640.000000pt" viewBox="0 0 640.000000 640.000000"
 preserveAspectRatio="xMidYMid meet">
<metadata>
Created by potrace 1.14, written by Peter Selinger 2001-2017
</metadata>
<g transform="translate(0.000000,640.000000) scale(0.100000,-0.100000)"
fill="#000000" stroke="none">
<path d="M2764 5743 c-36 -12 -111 -70 -239 -185 -17 -15 -41 -36 -55 -48 -83
-69 -126 -108 -146 -127 -13 -13 -25 -23 -27 -23 -3 0 -25 -19 -50 -42 -75
-70 -107 -98 -113 -98 -3 0 -13 -8 -22 -19 -10 -10 -105 -94 -212 -187 -107
-93 -197 -171 -200 -174 -3 -3 -39 -34 -80 -70 -41 -36 -88 -77 -105 -92 -16
-14 -40 -35 -51 -45 -96 -82 -139 -119 -148 -128 -6 -5 -45 -39 -86 -75 -41
-36 -88 -77 -105 -92 -44 -39 -73 -64 -135 -116 -30 -26 -64 -56 -76 -67 -20
-19 -105 -92 -168 -146 -16 -13 -43 -37 -61 -54 -36 -32 -53 -48 -160 -140
-70 -59 -117 -101 -139 -120 -58 -51 -111 -97 -155 -135 -184 -157 -221 -213
-227 -338 -6 -142 61 -253 185 -310 53 -24 66 -25 246 -27 105 0 195 -4 200
-7 11 -6 11 -79 1 -105 -3 -7 -2 -13 2 -13 4 0 6 -30 4 -67 -1 -38 -3 -96 -5
-131 -1 -34 0 -62 3 -62 6 0 3 -88 -4 -106 -3 -8 -2 -14 2 -14 4 0 6 -17 5
-37 -3 -75 -4 -99 -3 -161 0 -35 -2 -67 -5 -73 -4 -5 -2 -9 3 -9 4 0 6 -21 3
-47 -4 -27 -4 -68 -1 -93 3 -25 3 -58 0 -75 -3 -16 -3 -51 0 -77 4 -27 2 -48
-2 -48 -5 0 -7 -4 -4 -8 6 -10 8 -86 4 -170 -2 -34 -1 -62 2 -62 3 0 4 -28 2
-62 -4 -91 -2 -230 4 -239 2 -4 1 -10 -4 -13 -4 -2 -5 -34 -2 -70 3 -36 2 -66
-2 -66 -4 0 -6 -6 -3 -12 2 -7 6 -36 9 -63 18 -164 136 -299 301 -344 25 -7
199 -11 496 -11 505 0 516 2 614 65 63 40 131 115 141 155 0 3 8 21 16 40 21
47 30 103 28 175 -1 33 -2 65 -2 70 5 88 6 225 2 225 -3 0 -3 29 0 65 3 36 3
65 0 65 -4 0 -3 24 1 53 3 28 5 55 2 59 -2 5 -4 29 -3 55 0 27 1 57 0 68 0 11
0 36 1 55 1 19 1 42 0 50 -11 139 24 240 108 317 47 43 142 84 191 82 14 0 51
0 83 1 32 1 60 0 63 -3 3 -2 20 -1 38 3 19 4 39 4 46 0 6 -4 29 -4 51 0 22 4
41 4 44 0 2 -4 25 -4 50 0 25 4 45 4 45 1 0 -3 28 -5 62 -3 97 4 159 3 168 -3
13 -8 18 5 24 70 3 33 10 74 15 92 5 17 7 34 4 37 -3 3 0 12 7 21 7 8 10 15 7
15 -5 0 26 125 40 160 3 8 7 20 8 25 6 24 48 124 71 168 13 26 21 47 18 47 -4
0 -1 8 7 18 8 9 23 33 33 52 11 19 24 44 30 54 6 11 19 29 29 40 9 11 17 23
17 27 0 8 100 140 134 177 114 124 231 226 350 305 47 31 89 57 95 57 5 0 11
3 13 8 3 7 119 66 198 100 85 37 252 87 325 97 17 3 40 7 52 10 41 10 128 18
195 19 38 1 68 5 68 9 0 5 4 6 9 3 5 -3 61 -8 125 -11 64 -3 119 -5 123 -6 29
-5 18 10 -49 65 -24 20 -169 147 -203 178 -11 10 -32 29 -46 41 -51 44 -173
152 -189 167 -9 8 -47 42 -85 75 -39 33 -72 62 -75 65 -3 3 -36 32 -75 65 -38
33 -76 67 -85 75 -13 13 -64 57 -156 137 -39 33 -157 138 -184 163 -15 14 -50
44 -78 67 -27 24 -63 55 -79 70 -17 16 -54 48 -83 73 -29 25 -65 57 -81 71
-15 14 -54 48 -85 75 -31 27 -66 58 -78 69 -24 21 -183 161 -242 212 -52 45
-148 130 -170 150 -54 49 -100 79 -148 94 -62 20 -175 21 -232 2z"/>
<path d="M4927 3524 c-3 -3 -34 -8 -69 -9 -95 -6 -221 -25 -268 -43 -8 -3 -19
-6 -25 -7 -5 0 -17 -4 -25 -7 -8 -3 -44 -16 -80 -29 -183 -63 -362 -180 -517
-335 -62 -62 -113 -116 -113 -121 0 -4 -10 -19 -23 -33 -97 -107 -237 -421
-262 -587 -3 -21 -8 -50 -10 -63 -3 -14 -8 -76 -11 -139 -3 -63 -5 -117 -6
-120 0 -3 1 -8 2 -11 1 -3 3 -23 4 -45 5 -72 16 -152 26 -184 5 -17 7 -31 4
-31 -3 0 0 -8 5 -19 6 -10 13 -33 16 -51 3 -18 11 -42 17 -54 6 -11 11 -23 10
-26 -10 -31 167 -365 200 -378 4 -2 8 -10 8 -17 0 -13 202 -223 250 -260 62
-48 149 -105 159 -105 6 0 11 -4 11 -10 0 -5 7 -10 15 -10 8 0 15 -4 15 -10 0
-5 4 -10 9 -10 5 0 42 -15 83 -34 81 -38 218 -88 218 -81 0 3 16 -1 35 -9 19
-8 35 -13 35 -11 0 2 15 -1 32 -6 108 -31 412 -33 557 -4 46 9 161 41 221 60
84 28 254 116 325 167 208 153 368 336 471 540 30 59 73 162 80 193 2 6 10 35
19 65 9 30 18 69 21 85 3 17 7 37 10 45 24 66 25 396 1 515 -49 245 -133 436
-271 615 -48 62 -194 213 -246 255 -58 46 -181 124 -255 162 -73 38 -230 98
-280 107 -11 2 -55 11 -99 20 -43 9 -123 19 -178 22 -56 2 -104 6 -108 9 -4 2
-10 2 -13 -1z m689 -999 c39 -30 50 -47 59 -96 16 -84 14 -86 -399 -499 -212
-212 -398 -390 -413 -397 -15 -7 -39 -12 -53 -12 -69 -2 -92 15 -307 231 -116
117 -219 221 -227 230 -65 69 -30 206 62 245 36 15 107 13 137 -5 9 -4 85 -77
170 -162 l155 -154 315 315 c173 172 327 319 342 326 44 19 119 8 159 -22z"/>
</g>
</svg>
